<svg width="141" height="29" viewBox="0 0 141 29" fill="none" xmlns="http://www.w3.org/2000/svg">
<path d="M124.596 0.0771471C122.241 0.0771471 120.235 0.44477 118.579 1.18066C116.96 1.87982 115.654 2.81856 114.66 3.99609C113.703 5.13681 113.004 6.40639 112.562 7.80469L118.965 9.95703C119.222 8.7059 119.775 7.69365 120.621 6.9209C121.467 6.11142 122.756 5.70703 124.485 5.70703C126.251 5.7071 127.539 6.13028 128.349 6.97656C129.158 7.78611 129.563 8.83515 129.563 10.123L129.563 11.668L122.057 11.668C119.996 11.668 118.155 11.9997 116.536 12.6621C114.954 13.2877 113.703 14.2444 112.783 15.5322C111.9 16.7833 111.458 18.347 111.458 20.2236C111.458 22.1002 111.9 23.7007 112.783 25.0254C113.703 26.3133 114.936 27.3077 116.481 28.0068C118.027 28.6691 119.775 28.9999 121.725 29C123.638 29 125.147 28.7238 126.251 28.1719C127.355 27.6199 128.165 26.9941 128.68 26.2949C129.195 25.5591 129.527 24.9708 129.674 24.5293L130.723 24.5293L130.723 24.584C130.723 25.6879 131.164 26.571 132.047 27.2334C132.93 27.8958 134.053 28.2275 135.414 28.2275L140.051 28.2275L140.051 22.4863L137.843 22.4863C136.813 22.4863 136.297 21.9348 136.297 20.8311L136.297 10.6191C136.297 7.19704 135.248 4.58431 133.15 2.78125C131.053 0.978406 128.202 0.0772131 124.596 0.0771471ZM53.0693 0.0771408C50.3463 0.0771408 47.8986 0.628474 45.7275 1.73241C43.5565 2.83635 41.8458 4.43769 40.5947 6.53515C39.3437 8.63258 38.7178 11.1529 38.7178 14.0967L38.7178 14.9795C38.7178 17.9233 39.3436 20.4445 40.5947 22.542C41.8458 24.6393 43.5567 26.2398 45.7275 27.3437C47.8986 28.4477 50.3463 29 53.0693 29C55.7922 28.9999 58.2392 28.4476 60.4102 27.3437C62.5812 26.2398 64.2928 24.6394 65.5439 22.542C66.795 20.4445 67.4199 17.9232 67.4199 14.9795L67.4199 14.0967C67.4199 11.1531 66.7949 8.63251 65.5439 6.53515C64.2928 4.43767 62.5812 2.83635 60.4102 1.73241C58.2392 0.628558 55.7922 0.0771929 53.0693 0.0771408ZM84.5498 0.408198C82.7468 0.408198 81.2934 0.757928 80.1895 1.45703C79.0856 2.11937 78.2938 2.91017 77.8154 3.83007L76.8223 3.83007L76.8223 0.849604L69.9775 0.849603L69.9775 28.2275L76.9326 28.2275L76.9326 12.0547C76.9326 10.178 77.3558 8.74256 78.2021 7.74902C79.0853 6.71882 80.3182 6.2041 81.9004 6.2041C83.2986 6.20413 84.3845 6.59055 85.1572 7.36328C85.9297 8.09917 86.3163 9.22124 86.3164 10.7295L86.3164 28.2275L93.2705 28.2275L93.2705 12.0547C93.2705 10.178 93.6937 8.74256 94.54 7.74902C95.4231 6.71874 96.6561 6.20415 98.2383 6.2041C99.6366 6.2041 100.722 6.59052 101.495 7.36328C102.268 8.09917 102.654 9.2211 102.654 10.7295L102.654 28.2275L109.609 28.2275L109.609 10.2334C109.609 8.02554 109.186 6.20367 108.34 4.76855C107.53 3.29663 106.426 2.21088 105.027 1.51172C103.666 0.77592 102.139 0.4082 100.446 0.4082C98.3489 0.408214 96.7296 0.794636 95.5889 1.56738C94.4482 2.34011 93.565 3.3157 92.9395 4.49316L91.9463 4.49316C91.3207 3.27883 90.4187 2.30334 89.2412 1.56738C88.0637 0.794676 86.5 0.408214 84.5498 0.408198ZM25.7402 14.1133C25.7402 14.1133 24.8898 15.7382 23.5303 16.0742C22.0233 16.4465 21.0793 15.7479 21.0664 15.7383L26.1221 27.499C26.1221 27.499 26.3331 28.2275 27.375 28.2275C28.2287 28.2274 28.501 27.499 28.501 27.499L41.2891 -8.63402e-06L32.2402 -9.4251e-06L25.7402 14.1133ZM13.7793 -1.1039e-05C12.8588 0.000208113 12.6332 0.708808 12.6289 0.722645L-2.44989e-06 28.0234L8.93652 28.0234L15.3564 14.0117C15.363 13.9991 16.2008 12.3977 17.5381 12.0654C19.0369 11.693 19.9717 12.3994 19.9717 12.3994L14.9785 0.722645C14.9724 0.704283 14.7326 -1.08452e-05 13.7793 -1.1039e-05ZM129.563 17.4082C129.563 19.2113 128.938 20.6656 127.687 21.7695C126.472 22.8366 124.89 23.3701 122.939 23.3701C121.468 23.3701 120.345 23.0572 119.572 22.4316C118.8 21.8061 118.413 20.9964 118.413 20.0029C118.413 19.0094 118.782 18.2365 119.518 17.6846C120.253 17.1328 121.265 16.8565 122.553 16.8564L129.563 16.8564L129.563 17.4082ZM53.0693 6.25878C55.2402 6.25886 57.0067 6.9582 58.3682 8.35644C59.7663 9.71795 60.4658 11.687 60.4658 14.2627L60.4658 14.8144C60.4658 17.3901 59.7663 19.3771 58.3682 20.7754C56.9699 22.1368 55.2034 22.8183 53.0693 22.8184C50.9351 22.8184 49.1688 22.1368 47.7705 20.7754C46.3722 19.3771 45.6729 17.3903 45.6729 14.8144L45.6729 14.2627C45.6729 11.6868 46.3722 9.71796 47.7705 8.35644C49.1688 6.95822 50.9351 6.25878 53.0693 6.25878Z" fill="white"/>
</svg>
