<!-- Logo NOMA - Dark Version (for dark backgrounds) -->
<svg width="200" height="48" viewBox="0 0 200 48" fill="none" xmlns="http://www.w3.org/2000/svg">
  <!-- Icon -->
  <g id="icon">
    <!-- N Symbol -->
    <path d="M8 8 L8 40 L16 28 L16 40 L24 40 L24 8 L16 20 L16 8 Z" fill="#60A5FA"/>
  </g>
  
  <!-- Text NOMA -->
  <g id="text" fill="#F9FAFB">
    <!-- N -->
    <path d="M48 12 L48 36 L52 36 L52 20.8 L62 36 L66 36 L66 12 L62 12 L62 27.2 L52 12 Z"/>
    
    <!-- O -->
    <path d="M78 12 C72 12 68 16 68 24 C68 32 72 36 78 36 C84 36 88 32 88 24 C88 16 84 12 78 12 Z M78 16 C81.3 16 84 18.7 84 24 C84 29.3 81.3 32 78 32 C74.7 32 72 29.3 72 24 C72 18.7 74.7 16 78 16 Z"/>
    
    <!-- M -->
    <path d="M100 12 L100 36 L104 36 L104 18 L110 30 L114 30 L120 18 L120 36 L124 36 L124 12 L118 12 L112 26 L106 12 Z"/>
    
    <!-- A -->
    <path d="M140 36 L144.8 36 L143 31 L151 31 L149.2 36 L154 36 L147 12 L143 12 Z M144 27 L147 18 L150 27 Z"/>
  </g>
</svg>
